{"title":"Gun N Goal (2015) 480p - Punjabi Untouched Web HD - x264 - Team ","uid":12018306,"size":967959863,"categoryP":"video","categoryS":"movies","magnet":"?xt=urn:btih:a72149e678e2c04403229bceabcc2d03e7de07ff&amp;dn=Gun+N+Goal+%282015%29+480p+-+Punjabi+Untouched+Web+HD+-+x264+-+Team+&amp;tr=udp%3A%2F%2Ftracker.openbittorrent.com%3A80&amp;tr=udp%3A%2F%2Fopen.demonii.com%3A1337&amp;tr=udp%3A%2F%2Ftracker.coppersurfer.tk%3A6969&amp;tr=udp%3A%2F%2Fexodus.desync.com%3A6969","seeders":4,"leechers":3,"uploader":"SS132203","files":2,"time":1434349228,"description":"Gun N Goal (2015) 480p - Punjabi Untouched Web HD - x264 - Team IcTv Exclusive\n &lt;a href=&quot;\nhttp://imgsparrow.co/image/47&quot; rel=&quot;nofollow&quot; target=&quot;_NEW&quot;&gt;\nhttp://imgsparrow.co/image/47&lt;/a&gt;\n &lt;a href=&quot;\nhttp://imgsparrow.co/image/yk&quot; rel=&quot;nofollow&quot; target=&quot;_NEW&quot;&gt;\nhttp://imgsparrow.co/image/yk&lt;/a&gt;\n\nInfo : - \n\nAll Credit Goes To Intellect Clever &amp; IcTv\n\nExclusive First On Net\n\nMovie Info\nYear : 2015\nBanner : Sarao Films\nCast : Sumeet Singh Sarao and Rishita Monga\nVideo: AVC\nAudio : AAC\nGenre : Drama film, Sports\nSubtitles : NONE\nResolution : 720P-1080P-480p\nRuntime : 2hr 23min xx\nSource : Team IcTv \n\nFormat                      : MPEG-4\nFormat profile              : Base Media\nCodec ID                    : isom\nFile size                   : 923 MiB\nDuration                    : 2h 23mn\nOverall bit rate            : 897 Kbps\nWriting application         : Lavf55.33.100\n\nVideo\nID                          : 1\nFormat                      : AVC\nFormat/Info                 : Advanced Video Codec\nFormat profile              : Main@L3\nFormat settings, CABAC      : Yes\nFormat settings, ReFrames   : 3 frames\nCodec ID                    : avc1\nCodec ID/Info               : Advanced Video Coding\nDuration                    : 2h 23mn\nDuration_FirstFrame         : -42ms\nBit rate                    : 766 Kbps\nWidth                       : 854 pixels\nHeight                      : 480 pixels\nDisplay aspect ratio        : 16:9\nFrame rate mode             : Variable\nFrame rate                  : 24.000 fps\nMinimum frame rate          : 24.000 fps\nMaximum frame rate          : 24.013 fps\nColor space                 : YUV\nChroma subsampling          : 4:2:0\nBit depth                   : 8 bits\nScan type                   : Progressive\nBits/(Pixel*Frame)          : 0.078\nStream size                 : 788 MiB (85%)\n\nAudio\nID                          : 2\nFormat                      : AAC\nFormat/Info                 : Advanced Audio Codec\nFormat profile              : LC\nCodec ID                    : 40\nDuration                    : 2h 23mn\nBit rate mode               : Constant\nBit rate                    : 126 Kbps\nChannel(s)                  : 2 channels\nChannel positions           : Front: L R\nSampling rate               : 44.1 KHz\nCompression mode            : Lossy\nStream size                 : 129 MiB (14%)\n\nScreens : - \n &lt;a href=&quot;\nhttp://imgsparrow.co/image/yh&quot; rel=&quot;nofollow&quot; target=&quot;_NEW&quot;&gt;\nhttp://imgsparrow.co/image/yh&lt;/a&gt; &lt;a href=&quot;\nhttp://imgsparrow.co/image/yj&quot; rel=&quot;nofollow&quot; target=&quot;_NEW&quot;&gt;\nhttp://imgsparrow.co/image/yj&lt;/a&gt; &lt;a href=&quot;\nhttp://imgsparrow.co/image/yr&quot; rel=&quot;nofollow&quot; target=&quot;_NEW&quot;&gt;\nhttp://imgsparrow.co/image/yr&lt;/a&gt; &lt;a href=&quot;\nhttp://imgsparrow.co/image/yD&quot; rel=&quot;nofollow&quot; target=&quot;_NEW&quot;&gt;\nhttp://imgsparrow.co/image/yD&lt;/a&gt; &lt;a href=&quot;\nhttp://imgsparrow.co/image/yG&quot; rel=&quot;nofollow&quot; target=&quot;_NEW&quot;&gt;\nhttp://imgsparrow.co/image/yG&lt;/a&gt; &lt;a href=&quot;\nhttp://imgsparrow.co/image/ye&quot; rel=&quot;nofollow&quot; target=&quot;_NEW&quot;&gt;\nhttp://imgsparrow.co/image/ye&lt;/a&gt; &lt;a href=&quot;\nhttp://imgsparrow.co/image/yg&quot; rel=&quot;nofollow&quot; target=&quot;_NEW&quot;&gt;\nhttp://imgsparrow.co/image/yg&lt;/a&gt; &lt;a href=&quot;\nhttp://imgsparrow.co/image/yq&quot; rel=&quot;nofollow&quot; target=&quot;_NEW&quot;&gt;\nhttp://imgsparrow.co/image/yq&lt;/a&gt; &lt;a href=&quot;\nhttp://imgsparrow.co/image/yz&quot; rel=&quot;nofollow&quot; target=&quot;_NEW&quot;&gt;\nhttp://imgsparrow.co/image/yz&lt;/a&gt; &lt;a href=&quot;\nhttp://imgsparrow.co/image/y7&quot; rel=&quot;nofollow&quot; target=&quot;_NEW&quot;&gt;\nhttp://imgsparrow.co/image/y7&lt;/a&gt;\n &lt;a href=&quot;\nhttp://imgsparrow.co/image/N2&quot; rel=&quot;nofollow&quot; target=&quot;_NEW&quot;&gt;\nhttp://imgsparrow.co/image/N2&lt;/a&gt;","torrent":{"xt":"urn:btih:a72149e678e2c04403229bceabcc2d03e7de07ff","amp;dn":"Gun+N+Goal+%282015%29+480p+-+Punjabi+Untouched+Web+HD+-+x264+-+Team+","amp;tr":["udp%3A%2F%2Ftracker.openbittorrent.com%3A80","udp%3A%2F%2Fopen.demonii.com%3A1337","udp%3A%2F%2Ftracker.coppersurfer.tk%3A6969","udp%3A%2F%2Fexodus.desync.com%3A6969"],"infoHash":"a72149e678e2c04403229bceabcc2d03e7de07ff","infoHashBuffer":{"type":"Buffer","data":[167,33,73,230,120,226,192,68,3,34,155,206,171,204,45,3,231,222,7,255]},"announce":[],"urlList":[]}}